<svg xmlns="http://www.w3.org/2000/svg" viewBox="0 0 512 512">
  <!-- Background: Perisai Ungu (Warna Brand #7F3FBF) -->
  <path fill="#7F3FBF" d="M256 0c4.6 0 9.2 1 13.4 2.9L457.7 82.8c22 9.3 38.4 31 38.3 57.2c-.5 99.2-27.4 158.3-114.6 256.6c-30.2 34.1-68.7 59.6-112 74c-9 3-18.7 3-27.7 0c-43.3-14.4-81.8-39.9-112-74C43.4 298.3 16.5 239.2 16 140c-.1-26.2 16.3-47.9 38.3-57.2L242.6 2.9C246.8 1 251.4 0 256 0z"/>
  
  <!-- Icon: Tanda Centang Putih -->
  <path fill="#ffffff" d="M375 161c9.4 9.4 9.4 24.6 0 33.9l-146 146c-9.4 9.4-24.6 9.4-33.9 0l-75.5-75.5c-9.4-9.4-9.4-24.6 0-33.9s24.6-9.4 33.9 0l58.5 58.5 129-129c9.4-9.4 24.6-9.4 33.9 0z"/>
</svg>